<?xml version="1.0" encoding="UTF-8"?>
<!DOCTYPE svg PUBLIC "-//W3C//DTD SVG 1.1//EN" "http://www.w3.org/Graphics/SVG/1.1/DTD/svg11.dtd">
<svg xmlns="http://www.w3.org/2000/svg" version="1.1" width="2047px" height="779px" style="shape-rendering:geometricPrecision; text-rendering:geometricPrecision; image-rendering:optimizeQuality; fill-rule:evenodd; clip-rule:evenodd" xmlns:xlink="http://www.w3.org/1999/xlink">
<g><path style="opacity:0.999" fill="#545454" d="M -0.5,0.5 C -0.5,0.166667 -0.5,-0.166667 -0.5,-0.5C 681.833,-0.5 1364.17,-0.5 2046.5,-0.5C 2046.5,259.167 2046.5,518.833 2046.5,778.5C 1677.17,778.5 1307.83,778.5 938.5,778.5C 951.11,734.061 956.943,688.728 956,642.5C 950.742,535.575 895.242,473.742 789.5,457C 755.184,451.225 720.851,445.558 686.5,440C 662.033,435.634 638.366,428.634 615.5,419C 577.85,401.344 552.016,372.844 538,333.5C 529.946,307.949 521.279,282.615 512,257.5C 476.108,182.961 417.275,138.794 335.5,125C 323.873,123.537 312.206,122.537 300.5,122C 274.833,121.667 249.167,121.333 223.5,121C 162.216,120.57 106.549,102.903 56.5,68C 37.7421,49.7576 21.0754,29.9242 6.5,8.5C 6.00457,6.51826 5.50457,4.51826 5,2.5C 3.61229,2.78561 2.11229,2.45227 0.5,1.5C 0.5,0.833333 0.166667,0.5 -0.5,0.5 Z M 1215.5,193.5 C 1220.17,193.5 1224.83,193.5 1229.5,193.5C 1228.43,204.492 1227.43,215.492 1226.5,226.5C 1225.53,228.607 1225.2,230.941 1225.5,233.5C 1238.5,233.5 1251.5,233.5 1264.5,233.5C 1264.5,232.167 1264.5,230.833 1264.5,229.5C 1266.4,218.611 1267.74,207.611 1268.5,196.5C 1269.4,195.71 1270.07,194.71 1270.5,193.5C 1275.17,193.5 1279.83,193.5 1284.5,193.5C 1281.08,223.865 1277.41,254.198 1273.5,284.5C 1268.5,284.5 1263.5,284.5 1258.5,284.5C 1260,271.183 1261.33,257.849 1262.5,244.5C 1249.5,244.5 1236.5,244.5 1223.5,244.5C 1222.95,249.482 1222.61,254.482 1222.5,259.5C 1221.38,263.295 1220.72,267.295 1220.5,271.5C 1220,275.531 1219.33,279.531 1218.5,283.5C 1213.87,284.662 1209.2,284.828 1204.5,284C 1203.94,283.275 1203.61,282.442 1203.5,281.5C 1207.41,253.898 1210.74,226.232 1213.5,198.5C 1214.31,196.972 1214.98,195.306 1215.5,193.5 Z M 1319.5,193.5 C 1320.92,194.451 1322.59,194.784 1324.5,194.5C 1324.5,195.5 1324.5,196.5 1324.5,197.5C 1320.75,226.48 1317.09,255.48 1313.5,284.5C 1308.5,284.5 1303.5,284.5 1298.5,284.5C 1301.92,254.131 1305.59,223.798 1309.5,193.5C 1312.83,193.5 1316.17,193.5 1319.5,193.5 Z M 1407.5,193.5 C 1409.2,193.34 1410.87,193.506 1412.5,194C 1411.7,199.366 1414.04,203.032 1419.5,205C 1416.96,205.186 1414.63,205.686 1412.5,206.5C 1406.61,206.569 1401.61,208.569 1397.5,212.5C 1394.83,213.167 1393.17,214.833 1392.5,217.5C 1391.09,217.973 1390.43,218.973 1390.5,220.5C 1389.09,220.973 1388.43,221.973 1388.5,223.5C 1382.95,235.548 1382.45,247.882 1387,260.5C 1389.66,266.492 1394.16,270.325 1400.5,272C 1408.43,273.194 1416.1,272.36 1423.5,269.5C 1425.07,265.313 1425.73,260.98 1425.5,256.5C 1426.46,254.735 1426.79,252.735 1426.5,250.5C 1422.49,250.666 1418.49,250.499 1414.5,250C 1413.62,248.644 1413.29,247.144 1413.5,245.5C 1414.34,243.621 1414.67,241.621 1414.5,239.5C 1423.5,239.5 1432.5,239.5 1441.5,239.5C 1441.5,240.833 1441.5,242.167 1441.5,243.5C 1440.09,252.448 1439.09,261.448 1438.5,270.5C 1437.71,272.374 1437.05,274.374 1436.5,276.5C 1420.88,285.266 1404.54,286.766 1387.5,281C 1383.96,278.734 1380.62,276.234 1377.5,273.5C 1377.26,271.596 1376.26,270.262 1374.5,269.5C 1363.82,245.792 1367.16,224.292 1384.5,205C 1391.37,199.566 1399.03,195.733 1407.5,193.5 Z M 1022.5,327.5 C 1023.61,327.557 1024.61,327.89 1025.5,328.5C 1026.33,333.453 1026.66,338.453 1026.5,343.5C 1025.46,344.93 1024.8,346.597 1024.5,348.5C 1023.33,349.514 1022.66,350.847 1022.5,352.5C 1020.74,353.262 1019.74,354.596 1019.5,356.5C 1017.46,358.53 1015.13,360.196 1012.5,361.5C 1010.5,361.014 1009.17,359.847 1008.5,358C 1015.02,350.088 1016.85,341.255 1014,331.5C 1016.97,330.263 1019.8,328.93 1022.5,327.5 Z M 1258.5,398.5 C 1257.09,398.973 1256.43,399.973 1256.5,401.5C 1255.09,401.973 1254.43,402.973 1254.5,404.5C 1251,408.503 1247.33,412.336 1243.5,416C 1248.13,423.441 1253.13,430.607 1258.5,437.5C 1258.61,438.117 1258.94,438.617 1259.5,439C 1254.51,439.499 1249.51,439.666 1244.5,439.5C 1243.39,439.443 1242.39,439.11 1241.5,438.5C 1240.5,436.833 1239.17,435.5 1237.5,434.5C 1237.57,432.973 1236.91,431.973 1235.5,431.5C 1235.26,429.596 1234.26,428.262 1232.5,427.5C 1231.76,425.574 1230.76,423.741 1229.5,422C 1222.21,422.514 1214.87,422.514 1207.5,422C 1204.05,421.105 1200.72,419.938 1197.5,418.5C 1195.86,417.197 1194.19,415.864 1192.5,414.5C 1191.5,413.833 1190.5,413.167 1189.5,412.5C 1189.26,410.596 1188.26,409.262 1186.5,408.5C 1185.89,406.566 1184.89,404.899 1183.5,403.5C 1183.44,402.391 1183.11,401.391 1182.5,400.5C 1182.2,398.597 1181.54,396.93 1180.5,395.5C 1180.55,393.097 1180.22,390.764 1179.5,388.5C 1182.56,381.416 1183.22,374.083 1181.5,366.5C 1192.62,337.441 1213.29,326.607 1243.5,334C 1253.65,338.812 1260.15,346.646 1263,357.5C 1265.99,371.699 1264.49,385.366 1258.5,398.5 Z M 978.5,331.5 C 981.833,331.5 985.167,331.5 988.5,331.5C 990.075,333.114 990.741,335.114 990.5,337.5C 989.26,343.755 988.593,350.088 988.5,356.5C 986.918,359.876 986.251,363.542 986.5,367.5C 986.5,369.167 986.5,370.833 986.5,372.5C 984.305,379.876 983.305,387.543 983.5,395.5C 982.013,404.067 981.013,412.734 980.5,421.5C 975.072,422.104 969.738,422.104 964.5,421.5C 965.577,415.218 966.243,408.884 966.5,402.5C 968.185,396.061 969.352,389.395 970,382.5C 971.744,370.214 972.911,357.881 973.5,345.5C 974.477,342.713 974.81,339.713 974.5,336.5C 975.434,335.432 975.768,334.099 975.5,332.5C 976.791,332.737 977.791,332.404 978.5,331.5 Z M 1137.5,331.5 C 1137.45,335.198 1137.11,338.865 1136.5,342.5C 1133.33,369.191 1130,395.857 1126.5,422.5C 1122.17,422.5 1117.83,422.5 1113.5,422.5C 1115.72,404.524 1117.72,386.524 1119.5,368.5C 1120.73,364.355 1121.23,360.022 1121,355.5C 1119.22,358.059 1117.72,360.726 1116.5,363.5C 1115.33,364.514 1114.66,365.847 1114.5,367.5C 1113.09,367.973 1112.43,368.973 1112.5,370.5C 1111.09,370.973 1110.43,371.973 1110.5,373.5C 1103.36,385.103 1096.19,396.769 1089,408.5C 1086.1,410.227 1082.93,410.893 1079.5,410.5C 1077.71,408.728 1076.38,406.728 1075.5,404.5C 1070.89,390.343 1065.89,376.343 1060.5,362.5C 1059.96,360.407 1059.12,358.407 1058,356.5C 1056.89,360.086 1056.39,363.753 1056.5,367.5C 1053.95,385.765 1051.62,404.098 1049.5,422.5C 1045.17,422.5 1040.83,422.5 1036.5,422.5C 1039.92,392.131 1043.59,361.798 1047.5,331.5C 1051.51,331.334 1055.51,331.501 1059.5,332C 1061.33,332.273 1062.83,333.107 1064,334.5C 1071,353.833 1078,373.167 1085,392.5C 1097.17,372.833 1109.33,353.167 1121.5,333.5C 1126.66,331.735 1132,331.068 1137.5,331.5 Z M 1297.5,400.5 C 1298.35,403.888 1300.35,406.221 1303.5,407.5C 1321.4,412.432 1331.57,405.432 1334,386.5C 1336.24,370.204 1338.07,353.871 1339.5,337.5C 1340.29,335.626 1340.95,333.626 1341.5,331.5C 1345.5,331.5 1349.5,331.5 1353.5,331.5C 1355.07,333.114 1355.74,335.114 1355.5,337.5C 1353.09,354.436 1351.09,371.436 1349.5,388.5C 1348.33,391.341 1347.33,394.341 1346.5,397.5C 1346.5,397.833 1346.5,398.167 1346.5,398.5C 1344.66,400.849 1343.33,403.515 1342.5,406.5C 1340.27,408.607 1338.27,410.94 1336.5,413.5C 1334.6,413.738 1333.26,414.738 1332.5,416.5C 1330.63,417.263 1328.96,418.263 1327.5,419.5C 1324.6,420.129 1321.94,421.129 1319.5,422.5C 1306.91,424.879 1295.91,421.879 1286.5,413.5C 1286.57,411.973 1285.91,410.973 1284.5,410.5C 1281.82,404.599 1280.15,398.432 1279.5,392C 1282.2,372.253 1284.53,352.419 1286.5,332.5C 1291.82,332.02 1297.16,331.687 1302.5,331.5C 1299.1,353.062 1296.93,374.728 1296,396.5C 1296.21,398.058 1296.71,399.391 1297.5,400.5 Z M 1416.5,331.5 C 1416.99,332.995 1417.66,334.329 1418.5,335.5C 1422.37,353.966 1426.7,372.299 1431.5,390.5C 1431.06,390.435 1430.73,390.601 1430.5,391C 1433.85,398.532 1431.18,402.366 1422.5,402.5C 1421.08,402.377 1419.74,402.043 1418.5,401.5C 1413.04,400.171 1407.21,399.504 1401,399.5C 1394.99,399.501 1389.16,399.834 1383.5,400.5C 1380.32,406.196 1377.66,412.196 1375.5,418.5C 1374.17,419.167 1373.17,420.167 1372.5,421.5C 1367.83,421.833 1363.17,422.167 1358.5,422.5C 1372.38,392.412 1386.54,362.412 1401,332.5C 1406.07,331.529 1411.24,331.195 1416.5,331.5 Z"/></g>
<g><path style="opacity:0.923" fill="#828282" d="M 0.5,1.5 C 2.11229,2.45227 3.61229,2.78561 5,2.5C 5.50457,4.51826 6.00457,6.51826 6.5,8.5C 4.52927,6.1918 2.52927,3.85847 0.5,1.5 Z"/></g>
<g><path style="opacity:0.703" fill="#fbfbfb" d="M 1407.5,193.5 C 1422.56,190.128 1435.56,193.961 1446.5,205C 1444.4,207.854 1442.07,210.521 1439.5,213C 1438.67,213.167 1437.83,213.333 1437,213.5C 1432.93,211.553 1428.77,209.72 1424.5,208C 1420.58,206.844 1416.58,206.344 1412.5,206.5C 1414.63,205.686 1416.96,205.186 1419.5,205C 1414.04,203.032 1411.7,199.366 1412.5,194C 1410.87,193.506 1409.2,193.34 1407.5,193.5 Z"/></g>
<g><path style="opacity:0.991" fill="#fbfbfb" d="M 1466.5,193.5 C 1471.83,193.5 1477.17,193.5 1482.5,193.5C 1481.16,208.885 1479.33,224.218 1477,239.5C 1476.33,246.5 1476.33,253.5 1477,260.5C 1481.58,270.368 1489.08,273.534 1499.5,270C 1505.06,267.438 1508.89,263.272 1511,257.5C 1515.31,236.372 1518.14,215.038 1519.5,193.5C 1525.17,193.5 1530.83,193.5 1536.5,193.5C 1534.01,212.113 1531.84,230.78 1530,249.5C 1523.83,277.322 1506.67,288.822 1478.5,284C 1469.57,280.74 1463.74,274.573 1461,265.5C 1459.56,258.89 1459.23,252.224 1460,245.5C 1461.84,228.106 1464.01,210.772 1466.5,193.5 Z"/></g>
<g><path style="opacity:1" fill="#fbfbfb" d="M 1548.5,194.5 C 1553.98,193.348 1559.65,193.182 1565.5,194C 1566.33,194.833 1567.17,195.667 1568,196.5C 1572.84,209.51 1577.67,222.51 1582.5,235.5C 1591.3,221.532 1600.3,207.698 1609.5,194C 1614.86,193.171 1620.2,193.337 1625.5,194.5C 1613.14,212.363 1600.97,230.363 1589,248.5C 1587.17,260.468 1585.67,272.468 1584.5,284.5C 1579.17,284.5 1573.83,284.5 1568.5,284.5C 1569.75,271.51 1570.58,258.51 1571,245.5C 1563.45,228.41 1555.95,211.41 1548.5,194.5 Z"/></g>
<g><path style="opacity:1" fill="#fafafa" d="M 1655.5,192.5 C 1667.02,191.25 1677.18,194.25 1686,201.5C 1686.67,202.5 1686.67,203.5 1686,204.5C 1684.17,207 1682.33,209.5 1680.5,212C 1679.17,212.667 1677.83,212.667 1676.5,212C 1670.43,206.803 1663.43,205.136 1655.5,207C 1649.09,210.323 1646.93,215.489 1649,222.5C 1649.47,223.931 1650.3,225.097 1651.5,226C 1658.83,229.333 1666.17,232.667 1673.5,236C 1680.67,241.493 1683.5,248.659 1682,257.5C 1676.82,278.686 1663.32,287.852 1641.5,285C 1634.35,283.177 1628.19,279.677 1623,274.5C 1624.33,270.405 1626.83,266.905 1630.5,264C 1631.83,263.333 1633.17,263.333 1634.5,264C 1643.1,272.564 1652.6,273.731 1663,267.5C 1667.08,261.945 1667.41,256.278 1664,250.5C 1655.85,246.67 1647.68,242.837 1639.5,239C 1632.96,232.463 1630.79,224.629 1633,215.5C 1636.68,203.984 1644.18,196.317 1655.5,192.5 Z"/></g>
<g><path style="opacity:0.345" fill="#d6d6d6" d="M 1215.5,193.5 C 1214.98,195.306 1214.31,196.972 1213.5,198.5C 1213.08,196.219 1213.74,194.552 1215.5,193.5 Z"/></g>
<g><path style="opacity:0.149" fill="#e7e7e7" d="M 1270.5,193.5 C 1270.07,194.71 1269.4,195.71 1268.5,196.5C 1268.29,194.821 1268.95,193.821 1270.5,193.5 Z"/></g>
<g><path style="opacity:0.533" fill="#cccccc" d="M 1319.5,193.5 C 1321.5,193.5 1323.5,193.5 1325.5,193.5C 1325.77,195.099 1325.43,196.432 1324.5,197.5C 1324.5,196.5 1324.5,195.5 1324.5,194.5C 1322.59,194.784 1320.92,194.451 1319.5,193.5 Z"/></g>
<g><path style="opacity:0.412" fill="#c0c0c0" d="M 1397.5,212.5 C 1396.17,214.5 1394.5,216.167 1392.5,217.5C 1393.17,214.833 1394.83,213.167 1397.5,212.5 Z"/></g>
<g><path style="opacity:0.251" fill="#c3c3c3" d="M 1390.5,220.5 C 1390.57,222.027 1389.91,223.027 1388.5,223.5C 1388.43,221.973 1389.09,220.973 1390.5,220.5 Z"/></g>
<g><path style="opacity:0.293" fill="#b9b9b9" d="M 1226.5,226.5 C 1226.5,228.5 1226.5,230.5 1226.5,232.5C 1238.83,232.5 1251.17,232.5 1263.5,232.5C 1263.26,231.209 1263.6,230.209 1264.5,229.5C 1264.5,230.833 1264.5,232.167 1264.5,233.5C 1251.5,233.5 1238.5,233.5 1225.5,233.5C 1225.2,230.941 1225.53,228.607 1226.5,226.5 Z"/></g>
<g><path style="opacity:0.453" fill="#a6a6a6" d="M 1414.5,239.5 C 1423.65,238.506 1432.99,238.173 1442.5,238.5C 1442.78,240.415 1442.45,242.081 1441.5,243.5C 1441.5,242.167 1441.5,240.833 1441.5,239.5C 1432.5,239.5 1423.5,239.5 1414.5,239.5 Z"/></g>
<g><path style="opacity:0.114" fill="#dadada" d="M 1413.5,245.5 C 1413.29,247.144 1413.62,248.644 1414.5,250C 1418.49,250.499 1422.49,250.666 1426.5,250.5C 1426.79,252.735 1426.46,254.735 1425.5,256.5C 1425.5,254.833 1425.5,253.167 1425.5,251.5C 1421.49,251.666 1417.49,251.499 1413.5,251C 1412.19,249.057 1412.19,247.223 1413.5,245.5 Z"/></g>
<g><path style="opacity:0.741" fill="#9c9c9c" d="M 1222.5,259.5 C 1222.8,263.79 1222.14,267.79 1220.5,271.5C 1220.72,267.295 1221.38,263.295 1222.5,259.5 Z"/></g>
<g><path style="opacity:1" fill="#f7f7f7" d="M 1698.5,266.5 C 1706.69,265.42 1711.36,268.92 1712.5,277C 1711.39,287.723 1706.56,296.223 1698,302.5C 1696.21,301.223 1695.05,299.556 1694.5,297.5C 1697.2,293.938 1699.53,290.105 1701.5,286C 1692.22,280.557 1691.22,274.057 1698.5,266.5 Z"/></g>
<g><path style="opacity:0.565" fill="#bebebe" d="M 1374.5,269.5 C 1376.26,270.262 1377.26,271.596 1377.5,273.5C 1375.74,272.738 1374.74,271.404 1374.5,269.5 Z"/></g>
<g><path style="opacity:0.275" fill="#c7c7c7" d="M 1438.5,270.5 C 1438.97,273.082 1438.31,275.082 1436.5,276.5C 1437.05,274.374 1437.71,272.374 1438.5,270.5 Z"/></g>
<g><path style="opacity:0.22" fill="#cbcbcb" d="M 1022.5,327.5 C 1023.95,326.115 1024.95,326.448 1025.5,328.5C 1024.61,327.89 1023.61,327.557 1022.5,327.5 Z"/></g>
<g><path style="opacity:1" fill="#fbfbfb" d="M 1591.5,377.5 C 1600.83,377.5 1610.17,377.5 1619.5,377.5C 1619.5,378.833 1619.5,380.167 1619.5,381.5C 1618.49,392.612 1616.82,403.612 1614.5,414.5C 1599.84,423.791 1584.18,425.957 1567.5,421C 1555.87,414.932 1548.71,405.432 1546,392.5C 1542.49,369.031 1550.33,350.531 1569.5,337C 1584.98,328.715 1600.65,328.381 1616.5,336C 1618.76,337.715 1620.93,339.548 1623,341.5C 1622.57,346.771 1619.74,350.104 1614.5,351.5C 1609.81,348.829 1604.81,346.663 1599.5,345C 1579.87,343.41 1567.7,352.244 1563,371.5C 1561.72,381.117 1562.72,390.45 1566,399.5C 1570.45,406.779 1576.95,410.446 1585.5,410.5C 1590.96,410.133 1596.3,409.133 1601.5,407.5C 1602,401.479 1602.67,395.479 1603.5,389.5C 1599.49,389.666 1595.49,389.499 1591.5,389C 1590.48,385.227 1590.48,381.394 1591.5,377.5 Z"/></g>
<g><path style="opacity:1" fill="#fbfbfb" d="M 1950.5,330.5 C 1965.66,328.365 1978.66,332.531 1989.5,343C 1987.19,346.818 1984.19,349.652 1980.5,351.5C 1976.22,349.696 1971.88,347.863 1967.5,346C 1947.51,341.917 1934.68,349.75 1929,369.5C 1925.43,382.336 1927.6,394.003 1935.5,404.5C 1945.44,411.813 1955.94,412.48 1967,406.5C 1967.76,400.851 1968.26,395.184 1968.5,389.5C 1964.82,389.665 1961.15,389.499 1957.5,389C 1956.54,385.27 1956.21,381.437 1956.5,377.5C 1966.17,377.5 1975.83,377.5 1985.5,377.5C 1984.01,389.486 1982.51,401.486 1981,413.5C 1968.5,421.915 1954.66,425.082 1939.5,423C 1924.6,419.099 1915.43,409.599 1912,394.5C 1907.26,362.285 1920.09,340.952 1950.5,330.5 Z"/></g>
<g><path style="opacity:1" fill="#fafafa" d="M 1462.5,331.5 C 1467.1,331.2 1471.6,331.533 1476,332.5C 1488.25,353.337 1500.25,374.337 1512,395.5C 1514.83,374.184 1517.33,352.851 1519.5,331.5C 1524.5,331.5 1529.5,331.5 1534.5,331.5C 1530.64,361.805 1526.97,392.138 1523.5,422.5C 1519.49,422.666 1515.49,422.499 1511.5,422C 1499.21,401.249 1487.04,380.415 1475,359.5C 1471.92,379.775 1469.26,400.108 1467,420.5C 1462.48,422.407 1457.65,423.074 1452.5,422.5C 1456.09,392.199 1459.43,361.865 1462.5,331.5 Z"/></g>
<g><path style="opacity:1" fill="#fafafa" d="M 1692.5,330.5 C 1704.62,328.93 1714.96,332.43 1723.5,341C 1721.67,343.5 1719.83,346 1718,348.5C 1717.2,349.804 1716.03,350.471 1714.5,350.5C 1710.48,347.824 1706.15,345.658 1701.5,344C 1689.26,342.904 1683.76,348.404 1685,360.5C 1686.5,362 1688,363.5 1689.5,365C 1696.17,368 1702.83,371 1709.5,374C 1717.82,379.816 1720.65,387.649 1718,397.5C 1715.46,409.704 1708.3,417.87 1696.5,422C 1682.34,426.164 1670.17,422.998 1660,412.5C 1660.95,408.468 1663.12,404.968 1666.5,402C 1667.83,401.333 1669.17,401.333 1670.5,402C 1678.29,409.937 1687.29,411.603 1697.5,407C 1702.45,401.927 1703.61,396.094 1701,389.5C 1698.92,387.877 1696.75,386.377 1694.5,385C 1687.79,383.143 1681.46,380.476 1675.5,377C 1666.39,365.395 1666.23,353.562 1675,341.5C 1679.87,336.157 1685.7,332.49 1692.5,330.5 Z"/></g>
<g><path style="opacity:1" fill="#fbfbfb" d="M 1766.5,331.5 C 1772.63,330.908 1778.46,331.575 1784,333.5C 1790.85,363.188 1797.68,392.855 1804.5,422.5C 1799.49,422.666 1794.49,422.499 1789.5,422C 1789,421.5 1788.5,421 1788,420.5C 1786.18,413.914 1784.68,407.247 1783.5,400.5C 1772.18,399.334 1760.85,399.168 1749.5,400C 1746.7,407.274 1743.36,414.274 1739.5,421C 1733.92,422.737 1728.25,422.904 1722.5,421.5C 1737.15,391.536 1751.82,361.536 1766.5,331.5 Z"/></g>
<g><path style="opacity:1" fill="#fbfbfb" d="M 1828.5,331.5 C 1832.51,331.334 1836.51,331.501 1840.5,332C 1853.3,352.423 1865.46,373.256 1877,394.5C 1880.48,373.597 1883.32,352.597 1885.5,331.5C 1890.17,331.5 1894.83,331.5 1899.5,331.5C 1895.92,361.807 1892.59,392.141 1889.5,422.5C 1884.9,422.8 1880.4,422.467 1876,421.5C 1864.25,400.337 1852.25,379.337 1840,358.5C 1837.29,379.818 1834.79,401.152 1832.5,422.5C 1827.46,422.827 1822.46,422.494 1817.5,421.5C 1821.66,391.574 1825.32,361.574 1828.5,331.5 Z"/></g>
<g><path style="opacity:0.353" fill="#dadada" d="M 978.5,331.5 C 977.791,332.404 976.791,332.737 975.5,332.5C 975.768,334.099 975.434,335.432 974.5,336.5C 974.5,334.833 974.5,333.167 974.5,331.5C 975.833,331.5 977.167,331.5 978.5,331.5 Z"/></g>
<g><path style="opacity:0.498" fill="#c9c9c9" d="M 1341.5,331.5 C 1340.95,333.626 1340.29,335.626 1339.5,337.5C 1339.03,334.918 1339.69,332.918 1341.5,331.5 Z"/></g>
<g><path style="opacity:0.031" fill="#dcdcdc" d="M 1416.5,331.5 C 1418.18,332.183 1418.84,333.517 1418.5,335.5C 1417.66,334.329 1416.99,332.995 1416.5,331.5 Z"/></g>
<g><path style="opacity:0.49" fill="#cacaca" d="M 988.5,331.5 C 989.5,331.5 990.5,331.5 991.5,331.5C 991.795,333.735 991.461,335.735 990.5,337.5C 990.741,335.114 990.075,333.114 988.5,331.5 Z"/></g>
<g><path style="opacity:0.518" fill="#c8c8c8" d="M 1353.5,331.5 C 1354.5,331.5 1355.5,331.5 1356.5,331.5C 1356.79,333.735 1356.46,335.735 1355.5,337.5C 1355.74,335.114 1355.07,333.114 1353.5,331.5 Z"/></g>
<g><path style="opacity:0.796" fill="#999999" d="M 1137.5,331.5 C 1138.9,335.29 1138.57,338.956 1136.5,342.5C 1137.11,338.865 1137.45,335.198 1137.5,331.5 Z"/></g>
<g><path style="opacity:0.993" fill="#585858" d="M 1240.5,348.5 C 1240.43,350.027 1241.09,351.027 1242.5,351.5C 1245.11,353.052 1246.45,355.386 1246.5,358.5C 1246.41,361.152 1247.08,363.485 1248.5,365.5C 1250.12,377.696 1247.62,389.029 1241,399.5C 1232.52,409.246 1222.02,412.413 1209.5,409C 1203.61,406.108 1199.44,401.608 1197,395.5C 1193.24,380.387 1195.57,366.387 1204,353.5C 1214.99,342.399 1227.16,340.732 1240.5,348.5 Z"/></g>
<g><path style="opacity:0.753" fill="#aaaaaa" d="M 1026.5,343.5 C 1026.88,345.698 1026.21,347.365 1024.5,348.5C 1024.8,346.597 1025.46,344.93 1026.5,343.5 Z"/></g>
<g><path style="opacity:0.184" fill="#cacaca" d="M 1408.5,351.5 C 1407.83,350.5 1407.17,349.5 1406.5,348.5C 1406.37,347.624 1406.7,346.957 1407.5,346.5C 1408.45,348.045 1408.79,349.712 1408.5,351.5 Z"/></g>
<g><path style="opacity:0.494" fill="#c1c1c1" d="M 1240.5,348.5 C 1241.91,348.973 1242.57,349.973 1242.5,351.5C 1241.09,351.027 1240.43,350.027 1240.5,348.5 Z"/></g>
<g><path style="opacity:0.977" fill="#5b5b5b" d="M 1406.5,348.5 C 1407.17,349.5 1407.83,350.5 1408.5,351.5C 1408.5,351.833 1408.5,352.167 1408.5,352.5C 1408.42,355.781 1409.09,358.781 1410.5,361.5C 1412.34,368.374 1413.67,375.374 1414.5,382.5C 1414.5,384.167 1414.5,385.833 1414.5,387.5C 1406.1,388.134 1398.1,387.467 1390.5,385.5C 1395.46,372.937 1400.79,360.604 1406.5,348.5 Z"/></g>
<g><path style="opacity:1" fill="#595959" d="M 1772.5,347.5 C 1775.93,360.898 1778.59,374.565 1780.5,388.5C 1772.17,388.5 1763.83,388.5 1755.5,388.5C 1760.88,374.73 1766.55,361.063 1772.5,347.5 Z"/></g>
<g><path style="opacity:0.005" fill="#dedede" d="M 973.5,345.5 C 972.911,357.881 971.744,370.214 970,382.5C 969.352,389.395 968.185,396.061 966.5,402.5C 968.44,383.314 970.774,364.314 973.5,345.5 Z"/></g>
<g><path style="opacity:0.682" fill="#adadad" d="M 1022.5,352.5 C 1022.26,354.404 1021.26,355.738 1019.5,356.5C 1019.74,354.596 1020.74,353.262 1022.5,352.5 Z"/></g>
<g><path style="opacity:0.744" fill="#8e8e8e" d="M 1060.5,362.5 C 1059.5,362.5 1058.5,362.5 1057.5,362.5C 1057.78,364.415 1057.45,366.081 1056.5,367.5C 1056.39,363.753 1056.89,360.086 1058,356.5C 1059.12,358.407 1059.96,360.407 1060.5,362.5 Z"/></g>
<g><path style="opacity:0.502" fill="#cecece" d="M 988.5,356.5 C 988.57,360.425 987.903,364.091 986.5,367.5C 986.251,363.542 986.918,359.876 988.5,356.5 Z"/></g>
<g><path style="opacity:0.725" fill="#a7a7a7" d="M 1119.5,368.5 C 1119.66,366.143 1119.5,363.81 1119,361.5C 1118.29,362.381 1117.46,363.047 1116.5,363.5C 1117.72,360.726 1119.22,358.059 1121,355.5C 1121.23,360.022 1120.73,364.355 1119.5,368.5 Z"/></g>
<g><path style="opacity:0.62" fill="#a9a9a9" d="M 1408.5,352.5 C 1409.91,355.219 1410.58,358.219 1410.5,361.5C 1409.09,358.781 1408.42,355.781 1408.5,352.5 Z"/></g>
<g><path style="opacity:0.435" fill="#b1b1b1" d="M 1246.5,358.5 C 1247.92,360.515 1248.59,362.848 1248.5,365.5C 1247.08,363.485 1246.41,361.152 1246.5,358.5 Z"/></g>
<g><path style="opacity:0.302" fill="#e9e9e9" d="M 1181.5,366.5 C 1183.22,374.083 1182.56,381.416 1179.5,388.5C 1178.35,384.354 1178.19,380.02 1179,375.5C 1179.2,372.203 1180.04,369.203 1181.5,366.5 Z"/></g>
<g><path style="opacity:0.486" fill="#a9a9a9" d="M 1114.5,367.5 C 1114.57,369.027 1113.91,370.027 1112.5,370.5C 1112.43,368.973 1113.09,367.973 1114.5,367.5 Z"/></g>
<g><path style="opacity:0.302" fill="#bfbfbf" d="M 1112.5,370.5 C 1112.57,372.027 1111.91,373.027 1110.5,373.5C 1110.43,371.973 1111.09,370.973 1112.5,370.5 Z"/></g>
<g><path style="opacity:1" fill="#9f9f9f" d="M 1591.5,377.5 C 1600.99,376.506 1610.65,376.173 1620.5,376.5C 1620.78,378.415 1620.45,380.081 1619.5,381.5C 1619.5,380.167 1619.5,378.833 1619.5,377.5C 1610.17,377.5 1600.83,377.5 1591.5,377.5 Z"/></g>
<g><path style="opacity:0.429" fill="#8f8f8f" d="M 1414.5,382.5 C 1415.22,384.218 1415.89,386.052 1416.5,388C 1407.51,388.5 1398.51,388.666 1389.5,388.5C 1389.26,387.209 1389.6,386.209 1390.5,385.5C 1398.1,387.467 1406.1,388.134 1414.5,387.5C 1414.5,385.833 1414.5,384.167 1414.5,382.5 Z"/></g>
<g><path style="opacity:0.741" fill="#aaaaaa" d="M 1349.5,388.5 C 1349.86,392.081 1348.86,395.081 1346.5,397.5C 1347.33,394.341 1348.33,391.341 1349.5,388.5 Z"/></g>
<g><path style="opacity:0.588" fill="#c3c3c3" d="M 986.5,372.5 C 986.083,380.38 985.083,388.047 983.5,395.5C 983.305,387.543 984.305,379.876 986.5,372.5 Z"/></g>
<g><path style="opacity:0.837" fill="#f9f9f9" d="M 1431.5,390.5 C 1434.45,400.972 1437.12,411.639 1439.5,422.5C 1434.16,422.666 1428.82,422.499 1423.5,422C 1420.88,415.431 1419.22,408.598 1418.5,401.5C 1419.74,402.043 1421.08,402.377 1422.5,402.5C 1431.18,402.366 1433.85,398.532 1430.5,391C 1430.73,390.601 1431.06,390.435 1431.5,390.5 Z"/></g>
<g><path style="opacity:0.796" fill="#ababab" d="M 1180.5,395.5 C 1181.54,396.93 1182.2,398.597 1182.5,400.5C 1180.79,399.365 1180.12,397.698 1180.5,395.5 Z"/></g>
<g><path style="opacity:0.588" fill="#909090" d="M 1383.5,400.5 C 1389.16,399.834 1394.99,399.501 1401,399.5C 1407.21,399.504 1413.04,400.171 1418.5,401.5C 1406.91,400.522 1395.25,400.189 1383.5,400.5 Z"/></g>
<g><path style="opacity:0.337" fill="#b7b7b7" d="M 1258.5,398.5 C 1258.57,400.027 1257.91,401.027 1256.5,401.5C 1256.43,399.973 1257.09,398.973 1258.5,398.5 Z"/></g>
<g><path style="opacity:0.922" fill="#888888" d="M 1303.5,407.5 C 1300.35,406.221 1298.35,403.888 1297.5,400.5C 1298.82,401.953 1299.66,401.619 1300,399.5C 1301.37,400.993 1301.53,402.493 1300.5,404C 1301.71,405.039 1302.71,406.206 1303.5,407.5 Z"/></g>
<g><path style="opacity:0.341" fill="#c1c1c1" d="M 1256.5,401.5 C 1256.57,403.027 1255.91,404.027 1254.5,404.5C 1254.43,402.973 1255.09,401.973 1256.5,401.5 Z"/></g>
<g><path style="opacity:0.958" fill="#7e7e7e" d="M 1346.5,398.5 C 1346.41,399.496 1346.75,400.329 1347.5,401C 1346.57,401.388 1345.91,402.055 1345.5,403C 1345.89,404.011 1346.56,404.511 1347.5,404.5C 1347.19,405.308 1346.69,405.975 1346,406.5C 1344.85,405.316 1343.69,405.316 1342.5,406.5C 1343.33,403.515 1344.66,400.849 1346.5,398.5 Z"/></g>
<g><path style="opacity:0.9" fill="#939393" d="M 1183.5,403.5 C 1184.89,404.899 1185.89,406.566 1186.5,408.5C 1183.49,407.63 1182.49,405.964 1183.5,403.5 Z"/></g>
<g><path style="opacity:0.525" fill="#b4b4b4" d="M 1075.5,404.5 C 1076.38,406.728 1077.71,408.728 1079.5,410.5C 1076.22,409.878 1074.89,407.878 1075.5,404.5 Z"/></g>
<g><path style="opacity:0.655" fill="#bbbbbb" d="M 1186.5,408.5 C 1188.26,409.262 1189.26,410.596 1189.5,412.5C 1187.74,411.738 1186.74,410.404 1186.5,408.5 Z"/></g>
<g><path style="opacity:0.424" fill="#bebebe" d="M 1284.5,410.5 C 1285.91,410.973 1286.57,411.973 1286.5,413.5C 1285.09,413.027 1284.43,412.027 1284.5,410.5 Z"/></g>
<g><path style="opacity:0.494" fill="#bbbbbb" d="M 1336.5,413.5 C 1335.74,415.262 1334.4,416.262 1332.5,416.5C 1333.26,414.738 1334.6,413.738 1336.5,413.5 Z"/></g>
<g><path style="opacity:0.896" fill="#969696" d="M 1192.5,414.5 C 1194.19,415.864 1195.86,417.197 1197.5,418.5C 1194.45,418.817 1192.79,417.484 1192.5,414.5 Z"/></g>
<g><path style="opacity:0.584" fill="#b4b4b4" d="M 1375.5,418.5 C 1375.5,420.5 1374.5,421.5 1372.5,421.5C 1373.17,420.167 1374.17,419.167 1375.5,418.5 Z"/></g>
<g><path style="opacity:0.784" fill="#949494" d="M 1327.5,419.5 C 1325.38,421.655 1322.72,422.655 1319.5,422.5C 1321.94,421.129 1324.6,420.129 1327.5,419.5 Z"/></g>
<g><path style="opacity:0.608" fill="#a9a9a9" d="M 1232.5,427.5 C 1234.26,428.262 1235.26,429.596 1235.5,431.5C 1233.74,430.738 1232.74,429.404 1232.5,427.5 Z"/></g>
<g><path style="opacity:0.518" fill="#b0b0b0" d="M 1235.5,431.5 C 1236.91,431.973 1237.57,432.973 1237.5,434.5C 1236.09,434.027 1235.43,433.027 1235.5,431.5 Z"/></g>
<g><path style="opacity:0.776" fill="#b2b2b2" d="M 1237.5,434.5 C 1239.17,435.5 1240.5,436.833 1241.5,438.5C 1239.17,438.167 1237.83,436.833 1237.5,434.5 Z"/></g>
<g><path style="opacity:0.094" fill="#e2e2e2" d="M 1258.5,437.5 C 1259.92,437.75 1260.92,438.583 1261.5,440C 1255.65,440.818 1249.98,440.652 1244.5,439.5C 1249.51,439.666 1254.51,439.499 1259.5,439C 1258.94,438.617 1258.61,438.117 1258.5,437.5 Z"/></g>
</svg>
