<?xml version="1.0" encoding="UTF-8"?>
<!DOCTYPE svg PUBLIC "-//W3C//DTD SVG 1.1//EN" "http://www.w3.org/Graphics/SVG/1.1/DTD/svg11.dtd">
<svg xmlns="http://www.w3.org/2000/svg" version="1.1" width="2047px" height="779px" style="shape-rendering:geometricPrecision; text-rendering:geometricPrecision; image-rendering:optimizeQuality; fill-rule:evenodd; clip-rule:evenodd" xmlns:xlink="http://www.w3.org/1999/xlink">
<g><path style="opacity:1" fill="#545454" d="M 0.5,-0.5 C 682.5,-0.5 1364.5,-0.5 2046.5,-0.5C 2046.5,259.167 2046.5,518.833 2046.5,778.5C 1677.5,778.5 1308.5,778.5 939.5,778.5C 946.649,749.875 951.816,720.875 955,691.5C 959.886,648.809 955.552,607.143 942,566.5C 920.868,515.495 883.701,482.328 830.5,467C 814.434,461.979 798.1,457.979 781.5,455C 740.626,449.141 699.959,442.141 659.5,434C 623.588,426.134 592.755,409.3 567,383.5C 554.857,368.894 545.524,352.561 539,334.5C 531.263,309.622 522.93,284.955 514,260.5C 480.4,187.583 424.233,142.749 345.5,126C 332.219,124.139 318.886,122.805 305.5,122C 272.51,120.892 239.51,120.225 206.5,120C 150.495,116.648 99.8285,98.6477 54.5,66C 34.7487,45.0996 16.7487,22.9329 0.5,-0.5 Z"/></g>
<g><path style="opacity:1" fill="#fefefe" d="M -0.5,-0.5 C -0.166667,-0.5 0.166667,-0.5 0.5,-0.5C 16.7487,22.9329 34.7487,45.0996 54.5,66C 99.8285,98.6477 150.495,116.648 206.5,120C 239.51,120.225 272.51,120.892 305.5,122C 318.886,122.805 332.219,124.139 345.5,126C 424.233,142.749 480.4,187.583 514,260.5C 522.93,284.955 531.263,309.622 539,334.5C 545.524,352.561 554.857,368.894 567,383.5C 592.755,409.3 623.588,426.134 659.5,434C 699.959,442.141 740.626,449.141 781.5,455C 798.1,457.979 814.434,461.979 830.5,467C 883.701,482.328 920.868,515.495 942,566.5C 955.552,607.143 959.886,648.809 955,691.5C 951.816,720.875 946.649,749.875 939.5,778.5C 626.167,778.5 312.833,778.5 -0.5,778.5C -0.5,518.833 -0.5,259.167 -0.5,-0.5 Z"/></g>
<g><path style="opacity:1" fill="#fbfbfb" d="M 1406.5,192.5 C 1422.06,190.058 1435.39,194.224 1446.5,205C 1444.23,208.939 1441.07,211.772 1437,213.5C 1432.93,211.553 1428.77,209.72 1424.5,208C 1406.55,204.059 1394.05,210.559 1387,227.5C 1384.28,237.099 1383.95,246.765 1386,256.5C 1390.82,268.492 1399.65,273.659 1412.5,272C 1416.54,271.432 1420.37,270.265 1424,268.5C 1424.53,262.829 1425.03,257.162 1425.5,251.5C 1421.82,251.665 1418.15,251.499 1414.5,251C 1413.54,247.27 1413.21,243.437 1413.5,239.5C 1423.19,239.168 1432.86,239.502 1442.5,240.5C 1440.59,252.095 1439.09,263.761 1438,275.5C 1425.51,284.267 1411.67,287.433 1396.5,285C 1379.64,280.136 1370.14,268.97 1368,251.5C 1365.91,221.812 1378.74,202.145 1406.5,192.5 Z"/></g>
<g><path style="opacity:1" fill="#fbfbfb" d="M 1226.5,227.5 C 1225.54,229.265 1225.21,231.265 1225.5,233.5C 1238.34,233.829 1251.01,233.495 1263.5,232.5C 1265.23,219.647 1266.9,206.647 1268.5,193.5C 1274.17,193.5 1279.83,193.5 1285.5,193.5C 1281.59,223.806 1277.92,254.14 1274.5,284.5C 1268.83,284.5 1263.17,284.5 1257.5,284.5C 1259.33,271.192 1261,257.858 1262.5,244.5C 1249.83,244.5 1237.17,244.5 1224.5,244.5C 1222.34,257.769 1220.67,271.103 1219.5,284.5C 1213.83,284.5 1208.17,284.5 1202.5,284.5C 1206.9,254.26 1210.57,223.927 1213.5,193.5C 1219.17,193.5 1224.83,193.5 1230.5,193.5C 1228.84,204.792 1227.51,216.125 1226.5,227.5 Z"/></g>
<g><path style="opacity:1" fill="#fbfbfb" d="M 1308.5,193.5 C 1314.17,193.5 1319.83,193.5 1325.5,193.5C 1321.26,223.765 1317.59,254.098 1314.5,284.5C 1308.83,284.5 1303.17,284.5 1297.5,284.5C 1301.08,254.155 1304.75,223.822 1308.5,193.5 Z"/></g>
<g><path style="opacity:1" fill="#fbfbfb" d="M 1466.5,193.5 C 1471.83,193.5 1477.17,193.5 1482.5,193.5C 1480.83,208.842 1479,224.175 1477,239.5C 1476.33,246.167 1476.33,252.833 1477,259.5C 1480,269.158 1486.5,272.991 1496.5,271C 1503.57,268.928 1508.41,264.428 1511,257.5C 1515.31,236.376 1518.14,215.043 1519.5,193.5C 1525.17,193.5 1530.83,193.5 1536.5,193.5C 1534.33,213.527 1531.83,233.527 1529,253.5C 1521.29,278.611 1504.45,288.778 1478.5,284C 1467.97,280.114 1461.8,272.614 1460,261.5C 1459.33,255.5 1459.33,249.5 1460,243.5C 1462.28,226.807 1464.45,210.14 1466.5,193.5 Z"/></g>
<g><path style="opacity:1" fill="#fbfbfb" d="M 1548.5,194.5 C 1553.98,193.348 1559.65,193.182 1565.5,194C 1566.33,194.833 1567.17,195.667 1568,196.5C 1573.01,209.545 1578.01,222.545 1583,235.5C 1591.44,221.399 1600.27,207.565 1609.5,194C 1614.86,193.171 1620.2,193.337 1625.5,194.5C 1613.14,212.363 1600.97,230.363 1589,248.5C 1587.33,260.488 1585.83,272.488 1584.5,284.5C 1578.83,284.5 1573.17,284.5 1567.5,284.5C 1569.49,271.891 1570.66,259.224 1571,246.5C 1563.77,228.942 1556.27,211.609 1548.5,194.5 Z"/></g>
<g><path style="opacity:1" fill="#fafafa" d="M 1656.5,192.5 C 1667.66,191.343 1677.5,194.343 1686,201.5C 1685.42,205.497 1683.58,208.997 1680.5,212C 1679.17,212.667 1677.83,212.667 1676.5,212C 1670.43,206.803 1663.43,205.136 1655.5,207C 1649.09,210.323 1646.93,215.489 1649,222.5C 1649.47,223.931 1650.3,225.097 1651.5,226C 1658.83,229.333 1666.17,232.667 1673.5,236C 1681.04,241.299 1683.88,248.465 1682,257.5C 1676.88,278.664 1663.38,287.83 1641.5,285C 1633.88,283.193 1627.54,279.359 1622.5,273.5C 1624.6,269.894 1627.27,266.727 1630.5,264C 1631.83,263.333 1633.17,263.333 1634.5,264C 1643.1,272.564 1652.6,273.731 1663,267.5C 1667.08,261.945 1667.41,256.278 1664,250.5C 1655.82,246.663 1647.65,242.83 1639.5,239C 1632.96,232.463 1630.79,224.629 1633,215.5C 1636.79,203.544 1644.62,195.878 1656.5,192.5 Z"/></g>
<g><path style="opacity:1" fill="#b9b9b9" d="M 1226.5,227.5 C 1226.5,229.167 1226.5,230.833 1226.5,232.5C 1238.83,232.5 1251.17,232.5 1263.5,232.5C 1251.01,233.495 1238.34,233.829 1225.5,233.5C 1225.21,231.265 1225.54,229.265 1226.5,227.5 Z"/></g>
<g><path style="opacity:1" fill="#f8f8f8" d="M 1698.5,266.5 C 1707.33,265.003 1711.99,268.67 1712.5,277.5C 1711.19,287.954 1706.36,296.287 1698,302.5C 1696.21,301.223 1695.05,299.556 1694.5,297.5C 1697.41,294.076 1699.74,290.242 1701.5,286C 1692.39,280.506 1691.39,274.006 1698.5,266.5 Z"/></g>
<g><path style="opacity:1" fill="#f8f8f8" d="M 1022.5,326.5 C 1025.35,326.809 1026.85,328.475 1027,331.5C 1028.62,344.926 1023.79,355.26 1012.5,362.5C 1010.35,361.444 1008.69,359.944 1007.5,358C 1014.25,350.674 1015.92,342.341 1012.5,333C 1012.76,331.739 1013.43,330.739 1014.5,330C 1017.48,329.295 1020.14,328.129 1022.5,326.5 Z"/></g>
<g><path style="opacity:1" fill="#fbfbfb" d="M 1218.5,330.5 C 1247.58,328.192 1263.24,341.525 1265.5,370.5C 1265.36,389.115 1258.03,404.115 1243.5,415.5C 1249.31,423.807 1255.31,431.974 1261.5,440C 1255.5,440.667 1249.5,440.667 1243.5,440C 1237.95,435.284 1233.29,429.784 1229.5,423.5C 1194.4,426.848 1177.56,410.848 1179,375.5C 1182.86,352.151 1196.03,337.151 1218.5,330.5 Z"/></g>
<g><path style="opacity:1" fill="#fbfbfb" d="M 1591.5,377.5 C 1600.83,377.5 1610.17,377.5 1619.5,377.5C 1619.5,378.833 1619.5,380.167 1619.5,381.5C 1618.01,392.122 1616.84,402.788 1616,413.5C 1598.11,425.281 1579.61,426.447 1560.5,417C 1547.75,404.861 1542.92,390.028 1546,372.5C 1552.74,343.556 1570.91,329.723 1600.5,331C 1610.14,331.819 1618.14,335.819 1624.5,343C 1622.4,345.854 1620.07,348.521 1617.5,351C 1616.5,351.167 1615.5,351.333 1614.5,351.5C 1609.8,348.869 1604.8,346.702 1599.5,345C 1579.82,343.429 1567.65,352.263 1563,371.5C 1561.72,381.117 1562.72,390.45 1566,399.5C 1570.38,406.541 1576.71,410.208 1585,410.5C 1590.41,410.352 1595.57,409.185 1600.5,407C 1602.03,401.289 1603.03,395.456 1603.5,389.5C 1599.49,389.666 1595.49,389.499 1591.5,389C 1590.48,385.227 1590.48,381.394 1591.5,377.5 Z"/></g>
<g><path style="opacity:1" fill="#fbfbfb" d="M 1950.5,330.5 C 1962.28,328.927 1973.28,331.094 1983.5,337C 1985.5,339 1987.5,341 1989.5,343C 1987.19,346.818 1984.19,349.652 1980.5,351.5C 1954.01,337.495 1936.51,344.829 1928,373.5C 1925.79,385.195 1928.29,395.695 1935.5,405C 1945.6,411.731 1956.1,412.231 1967,406.5C 1967.76,400.851 1968.26,395.184 1968.5,389.5C 1964.82,389.665 1961.15,389.499 1957.5,389C 1956.54,385.27 1956.21,381.437 1956.5,377.5C 1966.17,377.5 1975.83,377.5 1985.5,377.5C 1984,389.49 1982.5,401.49 1981,413.5C 1968.54,422.261 1954.71,425.427 1939.5,423C 1920.06,416.501 1910.39,402.834 1910.5,382C 1911.78,355.249 1925.11,338.082 1950.5,330.5 Z"/></g>
<g><path style="opacity:1" fill="#fbfbfb" d="M 974.5,331.5 C 980.167,331.5 985.833,331.5 991.5,331.5C 987.588,361.798 983.921,392.131 980.5,422.5C 975.167,422.5 969.833,422.5 964.5,422.5C 967.459,392.123 970.792,361.789 974.5,331.5 Z"/></g>
<g><path style="opacity:1" fill="#fbfbfb" d="M 1046.5,331.5 C 1051.84,331.334 1057.18,331.501 1062.5,332C 1070.95,351.413 1078.45,371.247 1085,391.5C 1097.14,371.377 1109.64,351.544 1122.5,332C 1127.86,331.171 1133.2,331.337 1138.5,332.5C 1134.67,362.468 1131,392.468 1127.5,422.5C 1122.5,422.5 1117.5,422.5 1112.5,422.5C 1115.17,401.159 1117.67,379.826 1120,358.5C 1110,375.167 1100,391.833 1090,408.5C 1084.47,413.044 1079.8,412.377 1076,406.5C 1070,389.833 1064,373.167 1058,356.5C 1055.05,378.457 1052.55,400.457 1050.5,422.5C 1045.5,422.5 1040.5,422.5 1035.5,422.5C 1039.58,392.217 1043.24,361.883 1046.5,331.5 Z"/></g>
<g><path style="opacity:1" fill="#fbfbfb" d="M 1286.5,331.5 C 1291.83,331.5 1297.17,331.5 1302.5,331.5C 1300.83,346.842 1299,362.175 1297,377.5C 1296.33,384.167 1296.33,390.833 1297,397.5C 1300,407.158 1306.5,410.991 1316.5,409C 1323.57,406.928 1328.41,402.428 1331,395.5C 1335.31,374.376 1338.14,353.043 1339.5,331.5C 1345.17,331.5 1350.83,331.5 1356.5,331.5C 1354.33,351.527 1351.83,371.527 1349,391.5C 1341.29,416.611 1324.45,426.778 1298.5,422C 1287.97,418.114 1281.8,410.614 1280,399.5C 1279.33,393.5 1279.33,387.5 1280,381.5C 1282.28,364.807 1284.45,348.14 1286.5,331.5 Z"/></g>
<g><path style="opacity:1" fill="#fbfbfb" d="M 1418.5,401.5 C 1413.04,400.171 1407.21,399.504 1401,399.5C 1394.99,399.501 1389.16,399.834 1383.5,400.5C 1381.02,408.285 1377.36,415.452 1372.5,422C 1367.47,422.829 1362.47,422.662 1357.5,421.5C 1371.56,391.711 1385.89,362.045 1400.5,332.5C 1406.46,331.504 1412.46,331.171 1418.5,331.5C 1425.34,361.86 1432.34,392.194 1439.5,422.5C 1434.16,422.666 1428.82,422.499 1423.5,422C 1420.89,415.432 1419.22,408.599 1418.5,401.5 Z"/></g>
<g><path style="opacity:1" fill="#fbfbfb" d="M 1462.5,331.5 C 1467.1,331.2 1471.6,331.533 1476,332.5C 1488.25,353.337 1500.25,374.337 1512,395.5C 1515.16,374.238 1517.66,352.904 1519.5,331.5C 1524.5,331.5 1529.5,331.5 1534.5,331.5C 1530.92,361.838 1527.25,392.171 1523.5,422.5C 1519.49,422.666 1515.49,422.499 1511.5,422C 1499.21,401.249 1487.04,380.415 1475,359.5C 1471.72,380.44 1468.88,401.44 1466.5,422.5C 1461.83,422.5 1457.17,422.5 1452.5,422.5C 1456.24,392.217 1459.58,361.883 1462.5,331.5 Z"/></g>
<g><path style="opacity:1" fill="#fbfbfb" d="M 1692.5,330.5 C 1704.71,328.744 1715.05,332.244 1723.5,341C 1721.88,343.08 1720.38,345.246 1719,347.5C 1717.88,349.124 1716.38,350.124 1714.5,350.5C 1711.06,348.906 1707.73,347.073 1704.5,345C 1700.17,344.333 1695.83,344.333 1691.5,345C 1683.06,350.943 1682.39,357.609 1689.5,365C 1697.81,367.905 1705.64,371.738 1713,376.5C 1718.23,382.916 1719.9,390.249 1718,398.5C 1711.2,417.491 1697.7,425.658 1677.5,423C 1670.5,421.417 1664.67,417.917 1660,412.5C 1660.95,408.468 1663.12,404.968 1666.5,402C 1667.83,401.333 1669.17,401.333 1670.5,402C 1678.29,409.937 1687.29,411.603 1697.5,407C 1702.45,401.927 1703.61,396.094 1701,389.5C 1699.27,387.383 1697.1,385.883 1694.5,385C 1685.69,383.015 1678.19,378.849 1672,372.5C 1665.15,351.872 1671.98,337.872 1692.5,330.5 Z"/></g>
<g><path style="opacity:1" fill="#fbfbfb" d="M 1766.5,331.5 C 1772.63,330.908 1778.46,331.575 1784,333.5C 1791.31,363.086 1798.15,392.752 1804.5,422.5C 1799.49,422.666 1794.49,422.499 1789.5,422C 1789,421.5 1788.5,421 1788,420.5C 1786.57,413.836 1785.07,407.17 1783.5,400.5C 1772.17,399.167 1760.83,399.167 1749.5,400.5C 1746.55,407.564 1743.22,414.397 1739.5,421C 1733.95,422.57 1728.28,422.903 1722.5,422C 1737.04,391.761 1751.7,361.595 1766.5,331.5 Z"/></g>
<g><path style="opacity:1" fill="#fbfbfb" d="M 1828.5,331.5 C 1832.51,331.334 1836.51,331.501 1840.5,332C 1853.47,352.766 1865.8,373.933 1877.5,395.5C 1880.2,374.856 1882.7,354.19 1885,333.5C 1889.52,331.593 1894.35,330.926 1899.5,331.5C 1896.25,361.846 1892.91,392.18 1889.5,422.5C 1884.9,422.8 1880.4,422.467 1876,421.5C 1864.25,400.337 1852.25,379.337 1840,358.5C 1837.29,379.811 1834.79,401.145 1832.5,422.5C 1827.5,422.5 1822.5,422.5 1817.5,422.5C 1821.58,392.217 1825.24,361.883 1828.5,331.5 Z"/></g>
<g><path style="opacity:1" fill="#555555" d="M 1217.5,344.5 C 1237.5,341.665 1247.84,350.332 1248.5,370.5C 1249,384.183 1244.33,395.683 1234.5,405C 1210.36,415.596 1197.36,407.763 1195.5,381.5C 1195.46,364.545 1202.8,352.212 1217.5,344.5 Z"/></g>
<g><path style="opacity:1" fill="#565656" d="M 1414.5,385.5 C 1410.89,386.824 1406.89,387.491 1402.5,387.5C 1398.32,387.499 1394.32,387.166 1390.5,386.5C 1395.71,373.738 1401.21,361.071 1407,348.5C 1410.19,360.629 1412.69,372.962 1414.5,385.5 Z"/></g>
<g><path style="opacity:1" fill="#575757" d="M 1780.5,386.5 C 1772.17,387.833 1763.83,387.833 1755.5,386.5C 1761.32,373.526 1767.15,360.526 1773,347.5C 1775.7,360.477 1778.2,373.477 1780.5,386.5 Z"/></g>
<g><path style="opacity:1" fill="#a0a0a0" d="M 1591.5,377.5 C 1600.99,376.506 1610.65,376.173 1620.5,376.5C 1620.78,378.415 1620.45,380.081 1619.5,381.5C 1619.5,380.167 1619.5,378.833 1619.5,377.5C 1610.17,377.5 1600.83,377.5 1591.5,377.5 Z"/></g>
<g><path style="opacity:1" fill="#888888" d="M 1414.5,385.5 C 1415.4,386.209 1415.74,387.209 1415.5,388.5C 1406.81,388.831 1398.14,388.498 1389.5,387.5C 1389.62,386.893 1389.96,386.56 1390.5,386.5C 1394.32,387.166 1398.32,387.499 1402.5,387.5C 1406.89,387.491 1410.89,386.824 1414.5,385.5 Z"/></g>
<g><path style="opacity:1" fill="#909090" d="M 1755.5,386.5 C 1763.83,387.833 1772.17,387.833 1780.5,386.5C 1781.04,386.56 1781.38,386.893 1781.5,387.5C 1772.5,388.833 1763.5,388.833 1754.5,387.5C 1754.62,386.893 1754.96,386.56 1755.5,386.5 Z"/></g>
<g><path style="opacity:1" fill="#919191" d="M 1383.5,400.5 C 1389.16,399.834 1394.99,399.501 1401,399.5C 1407.21,399.504 1413.04,400.171 1418.5,401.5C 1406.91,400.522 1395.25,400.189 1383.5,400.5 Z"/></g>
</svg>
